<svg width="18" height="18" xmlns="http://www.w3.org/2000/svg"><path fill="#f9f9fa" fill-opacity=".8" d="M8.228 3.102a.635.635 0 0 0-.195.466.63.63 0 0 0 .192.461c.13.13.284.196.463.198a.635.635 0 0 0 .467-.193.634.634 0 0 0 .197-.463.64.64 0 0 0-.195-.469.624.624 0 0 0-.463-.193.635.635 0 0 0-.466.193Zm-.751 3.349c-.482.479-.704.998-.666 1.558.032.463.208.855.527 1.176.356.357.762.552 1.22.585.556.04 1.068-.172 1.536-.638.466-.464.68-.974.643-1.53A1.828 1.828 0 0 0 10.18 6.4a1.81 1.81 0 0 0-1.195-.555c-.563-.037-1.065.164-1.508.605Zm1.728-1.538 2.461 2.474.828-.824-2.46-2.474ZM8.201 7.23a.723.723 0 0 1 .554-.217.785.785 0 0 1 .564.244.81.81 0 0 1 .25.569.732.732 0 0 1-.225.552.722.722 0 0 1-.62.215.814.814 0 0 1-.503-.243.808.808 0 0 1-.237-.5.722.722 0 0 1 .217-.62Zm.225 3.384-.779.775-.316-.317c.02.178-.065.464-.101.59-.063.22-.203.462-.384.641a1.6 1.6 0 0 1-1.068.482c-.51.03-1-.208-1.392-.602-.398-.401-.578-.86-.538-1.375.032-.41.15-.83.436-1.114.167-.166.387-.356.604-.43a1.86 1.86 0 0 1 .55-.095L3.778 7.498l.779-.775Zm-2.019-.437c-.147-.148-.364-.285-.57-.284-.21 0-.49.096-.64.243-.164.164-.198.436-.18.667a.886.886 0 0 0 .256.514c.129.13.32.225.507.241.229.02.426-.006.593-.171a.918.918 0 0 0 .266-.595c.002-.206-.083-.465-.232-.615zm7.904-5.054c-2.361-3.256-7.065-3.65-9.935-.831-2.87 2.817-2.562 7.528.65 9.948l-.481 1.369C-.22 12.401-.141 5.362 4.695 2.262c4.837-3.1 11.266-.232 12.19 5.438ZM9.034 16.148 5 18l1.863-4.024Zm4.905-9.209L16.06 9.06l-6.176 6.149-2.121-2.122Zm.561 5.694 2.385-2.313a7.993 7.993 0 0 1-6.806 6.6l2.421-2.351a6.608 6.608 0 0 0 2-1.936z"/></svg>